<svg width="30" height="30" viewBox="0 0 30 30" fill="none" xmlns="http://www.w3.org/2000/svg">
<rect width="30" height="30" rx="15" fill="#639C06"/>
<path d="M14.6025 20.15C13.6075 20.15 12.7425 19.925 12.0075 19.475C11.2775 19.02 10.7125 18.3775 10.3125 17.5475C9.9175 16.7175 9.72 15.7375 9.72 14.6075C9.72 13.4575 9.9275 12.465 10.3425 11.63C10.7625 10.79 11.3475 10.1425 12.0975 9.6875C12.8475 9.2325 13.7225 9.005 14.7225 9.005C15.3675 9.005 15.955 9.1075 16.485 9.3125C17.015 9.5175 17.475 9.7975 17.865 10.1525C18.26 10.5075 18.5675 10.91 18.7875 11.36C19.0125 11.805 19.135 12.2675 19.155 12.7475H16.845C16.78 12.4025 16.65 12.0875 16.455 11.8025C16.265 11.5175 16.02 11.29 15.72 11.12C15.42 10.945 15.07 10.8575 14.67 10.8575C14.19 10.8575 13.755 10.9825 13.365 11.2325C12.975 11.4775 12.6675 11.87 12.4425 12.41C12.2175 12.95 12.105 13.6625 12.105 14.5475C12.105 15.2625 12.1775 15.8575 12.3225 16.3325C12.4725 16.8075 12.6725 17.185 12.9225 17.465C13.1725 17.74 13.4575 17.935 13.7775 18.05C14.0975 18.165 14.425 18.2225 14.76 18.2225C15.08 18.2225 15.365 18.17 15.615 18.065C15.87 17.955 16.0875 17.815 16.2675 17.645C16.4475 17.475 16.59 17.29 16.695 17.09C16.8 16.885 16.8675 16.685 16.8975 16.49L16.98 15.83H14.7375V14.315L19.275 14.3375V20H17.7825V18.5825C17.5975 18.8275 17.3675 19.0725 17.0925 19.3175C16.8225 19.5575 16.485 19.7575 16.08 19.9175C15.68 20.0725 15.1875 20.15 14.6025 20.15Z" fill="#FBFCFE"/>
</svg>
