<svg width="29" height="39" viewBox="0 0 29 39" fill="none" xmlns="http://www.w3.org/2000/svg">
<path d="M12.7083 0.791992V2.58366H5.54163C2.5731 2.58366 0.166626 4.99014 0.166626 7.95866V13.3337C0.166626 18.2812 4.17741 22.292 9.12496 22.292H19.875C24.8225 22.292 28.8333 18.2812 28.8333 13.3337V7.95866C28.8333 4.99014 26.4269 2.58366 23.4583 2.58366H16.2916V0.791992H12.7083ZM3.74996 7.95866C3.74996 6.96916 4.55212 6.16699 5.54163 6.16699H23.4583C24.4478 6.16699 25.25 6.96916 25.25 7.95866V13.3337C25.25 16.3022 22.8436 18.7087 19.875 18.7087H9.12496C6.15644 18.7087 3.74996 16.3022 3.74996 13.3337V7.95866ZM10.0208 15.1253C11.505 15.1253 12.7083 13.9221 12.7083 12.4378C12.7083 10.9536 11.505 9.75033 10.0208 9.75033C8.53652 9.75033 7.33329 10.9536 7.33329 12.4378C7.33329 13.9221 8.53652 15.1253 10.0208 15.1253ZM18.9791 15.1253C20.4633 15.1253 21.6666 13.9221 21.6666 12.4378C21.6666 10.9536 20.4633 9.75033 18.9791 9.75033C17.4949 9.75033 16.2916 10.9536 16.2916 12.4378C16.2916 13.9221 17.4949 15.1253 18.9791 15.1253ZM3.74996 38.417C3.74996 32.4799 8.5629 27.667 14.5 27.667C20.437 27.667 25.25 32.4799 25.25 38.417H28.8333C28.8333 30.5009 22.4161 24.0837 14.5 24.0837C6.58387 24.0837 0.166626 30.5009 0.166626 38.417H3.74996Z" fill="#76B900"/>
</svg>
