<svg width="106" height="106" viewBox="0 0 106 106" fill="none" xmlns="http://www.w3.org/2000/svg">
<circle cx="53" cy="53" r="53" fill="#36536B"/>
<mask id="mask0_82_3" style="mask-type:luminance" maskUnits="userSpaceOnUse" x="0" y="0" width="106" height="106">
<circle cx="53" cy="53" r="53" fill="white"/>
</mask>
<g mask="url(#mask0_82_3)">
</g>
<path d="M52.7778 58V62C45.414 62 39.4444 67.3726 39.4444 74H35C35 65.1634 42.9594 58 52.7778 58ZM52.7778 56C45.4111 56 39.4444 50.63 39.4444 44C39.4444 37.37 45.4111 32 52.7778 32C60.1444 32 66.1111 37.37 66.1111 44C66.1111 50.63 60.1444 56 52.7778 56ZM52.7778 52C57.6889 52 61.6667 48.42 61.6667 44C61.6667 39.58 57.6889 36 52.7778 36C47.8667 36 43.8889 39.58 43.8889 44C43.8889 48.42 47.8667 52 52.7778 52ZM72.7778 64H75V74H57.2222V64H59.4444V62C59.4444 58.6862 62.4291 56 66.1111 56C69.7931 56 72.7778 58.6862 72.7778 62V64ZM68.3333 64V62C68.3333 60.8954 67.3384 60 66.1111 60C64.8838 60 63.8889 60.8954 63.8889 62V64H68.3333Z" fill="#EDF3F8"/>
</svg>
