<svg width="106" height="106" viewBox="0 0 106 106" fill="none" xmlns="http://www.w3.org/2000/svg">
<circle cx="53" cy="53" r="53" fill="#36536B"/>
<mask id="mask0_113_43" style="mask-type:luminance" maskUnits="userSpaceOnUse" x="0" y="0" width="106" height="106">
<circle cx="53" cy="53" r="53" fill="white"/>
</mask>
<g mask="url(#mask0_113_43)">
</g>
<path d="M33 75C33 65.5322 41.9543 57.8571 53 57.8571C64.0457 57.8571 73 65.5322 73 75H68C68 67.8992 61.2842 62.1429 53 62.1429C44.7157 62.1429 38 67.8992 38 75H33ZM53 55.7143C44.7125 55.7143 38 49.9607 38 42.8571C38 35.7536 44.7125 30 53 30C61.2875 30 68 35.7536 68 42.8571C68 49.9607 61.2875 55.7143 53 55.7143ZM53 51.4286C58.525 51.4286 63 47.5929 63 42.8571C63 38.1214 58.525 34.2857 53 34.2857C47.475 34.2857 43 38.1214 43 42.8571C43 47.5929 47.475 51.4286 53 51.4286Z" fill="white"/>
</svg>
