<svg width="30" height="30" viewBox="0 0 30 30" fill="none" xmlns="http://www.w3.org/2000/svg">
<rect width="30" height="30" rx="15" fill="#50CD24"/>
<path d="M11.215 20V9.155H15.145C16.565 9.155 17.6175 9.4 18.3025 9.89C18.9925 10.375 19.3375 11.0775 19.3375 11.9975C19.3375 12.5375 19.2 13.0075 18.925 13.4075C18.65 13.8025 18.16 14.1475 17.455 14.4425C17.91 14.5575 18.2775 14.7125 18.5575 14.9075C18.8375 15.1025 19.0525 15.32 19.2025 15.56C19.3525 15.795 19.455 16.0425 19.51 16.3025C19.565 16.5575 19.5925 16.81 19.5925 17.06C19.5925 18.06 19.2525 18.8 18.5725 19.28C17.8925 19.76 16.81 20 15.325 20H11.215ZM13.3975 18.305H15.37C16.03 18.305 16.5275 18.1725 16.8625 17.9075C17.2025 17.6425 17.3725 17.2875 17.3725 16.8425C17.3725 16.5225 17.29 16.255 17.125 16.04C16.96 15.82 16.735 15.655 16.45 15.545C16.17 15.435 15.85 15.38 15.49 15.38H13.3975V18.305ZM13.3975 13.64H15.49C15.715 13.64 15.93 13.615 16.135 13.565C16.345 13.51 16.53 13.4275 16.69 13.3175C16.855 13.2075 16.985 13.0675 17.08 12.8975C17.175 12.7225 17.2225 12.5175 17.2225 12.2825C17.2225 11.8125 17.045 11.4575 16.69 11.2175C16.34 10.9725 15.89 10.85 15.34 10.85H13.3975V13.64Z" fill="#FBFCFE"/>
</svg>
