<svg width="30" height="30" viewBox="0 0 30 30" fill="none" xmlns="http://www.w3.org/2000/svg">
<rect width="30" height="30" rx="15" fill="#FF0000"/>
<path d="M17.055 16.985C17.055 17.675 16.98 18.255 16.83 18.725C16.68 19.195 16.405 19.55 16.005 19.79C15.605 20.03 15.03 20.15 14.28 20.15C13.935 20.15 13.58 20.12 13.215 20.06C12.85 20.005 12.5825 19.955 12.4125 19.91L12.4575 17.9075C12.6025 17.9375 12.7675 17.9775 12.9525 18.0275C13.1425 18.0775 13.3525 18.1025 13.5825 18.1025C14.0875 18.1025 14.4275 17.97 14.6025 17.705C14.7775 17.435 14.865 17 14.865 16.4V9.155H17.055V16.985Z" fill="#FBFCFE"/>
</svg>
