<svg width="106" height="106" viewBox="0 0 106 106" fill="none" xmlns="http://www.w3.org/2000/svg">
<circle cx="53" cy="53" r="53" fill="#36536B"/>
<mask id="mask0_82_5" style="mask-type:luminance" maskUnits="userSpaceOnUse" x="0" y="0" width="106" height="106">
<circle cx="53" cy="53" r="53" fill="white"/>
</mask>
<g mask="url(#mask0_82_5)">
</g>
<path d="M49.6667 46.3333H56.3333V43.8333C56.3333 40.6117 58.945 38 62.1667 38C65.3883 38 68 40.6117 68 43.8333C68 47.055 65.3883 49.6667 62.1667 49.6667H59.6667V56.3333H62.1667C65.3883 56.3333 68 58.945 68 62.1667C68 65.3883 65.3883 68 62.1667 68C58.945 68 56.3333 65.3883 56.3333 62.1667V59.6667H49.6667V62.1667C49.6667 65.3883 47.055 68 43.8333 68C40.6117 68 38 65.3883 38 62.1667C38 58.945 40.6117 56.3333 43.8333 56.3333H46.3333V49.6667H43.8333C40.6117 49.6667 38 47.055 38 43.8333C38 40.6117 40.6117 38 43.8333 38C47.055 38 49.6667 40.6117 49.6667 43.8333V46.3333ZM46.3333 46.3333V43.8333C46.3333 42.4526 45.214 41.3333 43.8333 41.3333C42.4526 41.3333 41.3333 42.4526 41.3333 43.8333C41.3333 45.214 42.4526 46.3333 43.8333 46.3333H46.3333ZM46.3333 59.6667H43.8333C42.4526 59.6667 41.3333 60.786 41.3333 62.1667C41.3333 63.5473 42.4526 64.6667 43.8333 64.6667C45.214 64.6667 46.3333 63.5473 46.3333 62.1667V59.6667ZM59.6667 46.3333H62.1667C63.5473 46.3333 64.6667 45.214 64.6667 43.8333C64.6667 42.4526 63.5473 41.3333 62.1667 41.3333C60.786 41.3333 59.6667 42.4526 59.6667 43.8333V46.3333ZM59.6667 59.6667V62.1667C59.6667 63.5473 60.786 64.6667 62.1667 64.6667C63.5473 64.6667 64.6667 63.5473 64.6667 62.1667C64.6667 60.786 63.5473 59.6667 62.1667 59.6667H59.6667ZM49.6667 49.6667V56.3333H56.3333V49.6667H49.6667Z" fill="#EDF3F8"/>
</svg>
